<svg width="1447" height="1221" viewBox="0 0 1447 1221" fill="none" xmlns="http://www.w3.org/2000/svg">
<path d="M535 0L935 468H710.5L591 299.5C495 176.7 426.5 206 501 299.5L632 468H501L0 0H535Z" fill="#D35400"/>
<path d="M911.5 1221L511.5 753H736L855.5 921.5C951.5 1044.3 1020 1015 945.5 921.5L814.5 753H945.5L1446.5 1221H911.5Z" fill="#D35400"/>
<path d="M519.765 516.707L543.95 522.371H588.05L612.235 516.707C623.925 513.969 632.175 503.694 632.175 491.873V471.159C632.175 469.414 630.738 468 628.964 468H566H503.036C501.262 468 499.824 469.414 499.824 471.159V491.873C499.824 503.694 508.074 513.969 519.765 516.707Z" fill="#D35400"/>
<path d="M566 468L557.024 468L551.078 498.315L566 513.632L580.922 498.315L574.976 468L566 468Z" fill="#D35400"/>
<path d="M589.356 554.159L603.737 545.65C605.665 544.509 606.439 542.141 605.547 540.108L599.898 527.231L602.997 507.369C603.197 506.085 602.99 504.772 602.405 503.608L584.49 468L574.976 468L580.922 498.315C580.922 498.315 585.991 523.485 577.678 531.662V554.159H589.356Z" fill="#D35400"/>
<path d="M516.869 515.847C512.401 511.223 509.718 504.991 509.718 498.255V468L503.036 468C501.262 468 499.824 469.414 499.824 471.159V491.873C499.824 502.691 506.736 512.21 516.869 515.847Z" fill="#D35400"/>
<path d="M561.783 495.443L557.024 468L566 468L574.976 468L570.217 495.443H561.783Z" fill="#D35400"/>
<path d="M561.008 490.976L561.783 495.443H570.217L570.992 490.976H561.008Z" fill="#D35400"/>
<path d="M566 513.632L556.106 503.476L561.783 495.443H570.217L575.894 503.476L566 513.632Z" fill="#D35400"/>
<path d="M562.253 504.042L558.458 500.147L556.106 503.476L566 513.632L575.894 503.476L573.541 500.147C572.459 501.258 571.052 502.703 569.746 504.043C567.703 506.14 564.296 506.139 562.253 504.042Z" fill="#D35400"/>
<path d="M542.644 554.159L528.263 545.65C526.335 544.509 525.561 542.141 526.453 540.108L532.101 527.231L529.003 507.369C528.803 506.085 529.009 504.772 529.595 503.608L547.51 468L557.024 468L551.078 498.315C551.078 498.315 546.009 523.485 554.322 531.662V554.159H542.644Z" fill="#D35400"/>
<path d="M577.678 549.053L577.678 531.662L566 513.632L554.322 531.662L554.322 549.053H577.678Z" fill="#D35400"/>
<path d="M554.322 539.026V549.053H577.678L577.678 539.072C574.088 537.877 570.257 537.214 566.28 537.185L565.998 537.184C561.969 537.184 558.038 537.814 554.322 539.026Z" fill="#D35400"/>
<path d="M605.9 586.057V567.854C605.9 543.033 588.302 522.46 566.303 522.277C544.128 522.091 526.1 542.315 526.1 567.289V586.057H605.9Z" fill="#D35400"/>
<path d="M535.205 595.869V567.118C535.205 548.338 538.881 536.381 553.999 527.795C557.34 525.898 560.822 523.02 566.624 522.429C568.216 522.429 565.074 522.27 566.624 522.429C559.142 522.429 554.934 523.809 550.882 525.648C544.833 528.395 539.73 532.376 535.739 537.301C529.332 545.206 525.788 555.545 525.788 567.118V586.281L535.205 595.869Z" fill="#D35400"/>
<path d="M584.859 527.641C593.171 519.464 580.922 498.315 580.922 498.315L566 513.632L571.143 522.582C571.143 522.582 575.096 523.337 577.689 524.268C580.502 525.278 584.859 527.641 584.859 527.641Z" fill="#D35400"/>
<path d="M548.388 526.875C540.075 518.697 551.078 498.315 551.078 498.315L566 513.632L560.701 522.735C560.701 522.735 556.582 523.313 554.155 524.268C551.817 525.188 548.388 526.875 548.388 526.875Z" fill="#D35400"/>
<path d="M516.377 586.057C514.377 586.057 513.491 588.309 515.05 589.43L528.551 599.144L536.025 622.703C536.457 624.062 537.843 625 539.422 625H592.578C594.157 625 595.543 624.062 595.975 622.703L603.449 599.144L616.95 589.43C618.509 588.309 617.623 586.057 615.622 586.057H516.377Z" fill="#D35400"/>
<path d="M528.52 599.144L535.978 622.703C536.409 624.062 537.793 625 539.368 625H544.18L535.994 599.144L517.843 586.057H516.373C514.377 586.057 513.493 588.309 515.048 589.43L528.52 599.144Z" fill="#D35400"/>
<path d="M532.033 609.975H599.967L603.406 599.242H528.594L532.033 609.975Z" fill="#D35400"/>
<path d="M532.03 609.975H539.504L536.068 599.242H528.594L532.03 609.975Z" fill="#D35400"/>
<path d="M925.911 704.293L901.726 698.629H857.626L833.441 704.293C821.751 707.031 813.5 717.306 813.5 729.127V749.841C813.5 751.586 814.938 753 816.712 753H879.676H942.64C944.414 753 945.852 751.586 945.852 749.841V729.127C945.852 717.306 937.601 707.031 925.911 704.293Z" fill="#D35400"/>
<path d="M879.676 753L888.652 753L894.598 722.685L879.676 707.368L864.754 722.685L870.7 753L879.676 753Z" fill="#D35400"/>
<path d="M928.807 705.153C933.275 709.777 935.957 716.009 935.957 722.745V753L942.64 753C944.414 753 945.852 751.586 945.852 749.841V729.127C945.852 718.309 938.939 708.79 928.807 705.153Z" fill="#D35400"/>
<path d="M883.893 725.557L888.652 753L879.676 753L870.7 753L875.459 725.557H883.893Z" fill="#D35400"/>
<path d="M884.668 730.024L883.893 725.557H875.459L874.684 730.024H884.668Z" fill="#D35400"/>
<path d="M879.676 707.368L889.57 717.524L883.893 725.557H875.459L869.782 717.524L879.676 707.368Z" fill="#D35400"/>
<path d="M883.423 716.958L887.217 720.853L889.57 717.524L879.676 707.368L869.782 717.524L872.135 720.853C873.217 719.742 874.624 718.297 875.93 716.957C877.973 714.86 881.38 714.861 883.423 716.958Z" fill="#D35400"/>
<path d="M867.998 671.947L867.998 689.338L879.676 707.368L891.354 689.338L891.354 671.947H867.998Z" fill="#D35400"/>
<path d="M891.354 681.974V671.947H867.998L867.998 681.928C871.587 683.123 875.418 683.786 879.396 683.815L879.678 683.816C883.707 683.816 887.637 683.186 891.354 681.974Z" fill="#D35400"/>
<path d="M839.776 634.943V653.146C839.776 677.967 857.373 698.54 879.373 698.723C901.548 698.909 919.576 678.685 919.576 653.711V634.943H839.776Z" fill="#D35400"/>
<path d="M910.471 634.943V653.882C910.471 672.662 906.795 684.619 891.677 693.205C888.336 695.102 884.854 697.98 879.052 698.571C877.46 698.571 880.602 698.73 879.052 698.571C886.533 698.571 890.742 697.191 894.794 695.352C900.843 692.605 905.946 688.624 909.937 683.699C916.344 675.794 919.887 665.455 919.887 653.882V634.719L910.471 634.943Z" fill="#D35400"/>
<path d="M874.532 698.418C866.22 706.596 864.754 722.685 864.754 722.685L879.676 707.368L874.532 698.418C874.532 698.418 870.58 697.663 867.986 696.732C865.174 695.722 874.532 698.418 874.532 698.418Z" fill="#D35400"/>
<path d="M888.844 697.531C897.157 705.708 894.598 722.685 894.598 722.685L879.676 707.368L884.975 698.265C884.975 698.265 889.094 697.687 891.521 696.732C893.859 695.812 888.844 697.531 888.844 697.531Z" fill="#D35400"/>
<g filter="url(#filter0_d)">
<path d="M906.195 497.102L887.844 525.227C885.852 525.109 883.965 524.957 882.184 524.77C880.402 524.605 878.844 524.43 877.508 524.242C875.938 524.031 874.484 523.82 873.148 523.609V515.523L879.688 517V480.719L873.148 482.195V473.477C875.633 472.984 878.082 472.621 880.496 472.387C882.91 472.152 885.359 471.977 887.844 471.859V510.461L906.195 481.984L924.828 510.531V471.859C926.82 471.977 928.707 472.117 930.488 472.281C932.27 472.445 933.828 472.621 935.164 472.809C936.734 473.02 938.188 473.242 939.523 473.477V482.195L932.984 480.719V517.07L939.523 515.594V523.68C938.188 523.891 936.734 524.102 935.164 524.312C933.828 524.5 932.27 524.676 930.488 524.84C928.707 525.027 926.82 525.18 924.828 525.297L906.195 497.102ZM821.539 486.344C822.125 486.859 822.852 487.363 823.719 487.855C824.586 488.348 825.652 488.781 826.918 489.156C828.184 489.555 829.695 489.871 831.453 490.105C833.188 490.363 835.227 490.492 837.57 490.492C839.656 490.492 841.637 490.445 843.512 490.352C845.363 490.281 846.992 490.047 848.398 489.648C849.805 489.273 850.918 488.664 851.738 487.82C852.559 486.977 852.969 485.805 852.969 484.305V479.805C850.906 479.477 848.633 479.207 846.148 478.996C843.664 478.785 840.898 478.68 837.852 478.68C835.414 478.68 832.824 478.762 830.082 478.926C827.316 479.113 824.469 479.477 821.539 480.016V486.344ZM837.359 512.078C836.188 512.078 834.77 512.02 833.105 511.902C831.441 511.785 829.707 511.574 827.902 511.27C826.098 510.988 824.316 510.59 822.559 510.074C820.777 509.582 819.184 508.926 817.777 508.105C816.348 507.309 815.199 506.348 814.332 505.223C813.465 504.098 813.031 502.773 813.031 501.25V474.039C815 473.641 817.227 473.301 819.711 473.02C821.844 472.762 824.387 472.527 827.34 472.316C830.293 472.105 833.586 472 837.219 472C840.828 472 844.672 472.152 848.75 472.457C852.805 472.762 857.047 473.289 861.477 474.039V486.695C861.477 488.055 861.16 489.238 860.527 490.246C859.871 491.277 858.98 492.156 857.855 492.883C856.73 493.609 855.406 494.207 853.883 494.676C852.359 495.145 850.719 495.52 848.961 495.801C847.203 496.082 845.375 496.27 843.477 496.363C841.578 496.48 839.68 496.539 837.781 496.539C834.898 496.539 832.449 496.352 830.434 495.977C828.395 495.625 826.707 495.238 825.371 494.816C823.824 494.301 822.547 493.727 821.539 493.094V498.789C821.539 499.75 821.773 500.57 822.242 501.25C822.711 501.953 823.344 502.539 824.141 503.008C824.938 503.5 825.852 503.887 826.883 504.168C827.914 504.473 828.992 504.707 830.117 504.871C831.242 505.035 832.391 505.141 833.562 505.188C834.711 505.234 835.789 505.258 836.797 505.258C837.852 505.258 838.977 505.223 840.172 505.152C841.367 505.105 842.562 505 843.758 504.836C844.93 504.672 846.066 504.438 847.168 504.133C848.246 503.852 849.207 503.465 850.051 502.973C850.895 502.48 851.574 501.883 852.09 501.18C852.582 500.5 852.828 499.68 852.828 498.719L861.547 500.969C861.547 502.539 861.16 503.898 860.387 505.047C859.613 506.219 858.594 507.215 857.328 508.035C856.039 508.855 854.562 509.523 852.898 510.039C851.234 510.578 849.512 510.988 847.73 511.27C845.926 511.574 844.133 511.785 842.352 511.902C840.57 512.02 838.906 512.078 837.359 512.078ZM782.305 519.32C783.266 519.32 784.145 519.227 784.941 519.039C785.738 518.852 786.441 518.559 787.051 518.16C787.637 517.785 788.094 517.305 788.422 516.719C788.75 516.156 788.914 515.5 788.914 514.75V512.57H779.844V506.664H788.914V472H798.055V506.664H803.75V512.57H798.055V513.766C798.055 515.43 797.703 516.977 797 518.406C796.297 519.836 795.277 521.066 793.941 522.098C792.582 523.152 790.93 523.973 788.984 524.559C787.039 525.145 784.812 525.438 782.305 525.438V519.32ZM760.297 472H769.227V512.078H760.297V472ZM764.727 526C762.992 526 761.621 525.707 760.613 525.121C759.605 524.559 759.102 523.656 759.102 522.414V520.656C759.102 519.531 759.605 518.723 760.613 518.23C761.621 517.738 762.992 517.492 764.727 517.492C766.391 517.492 767.738 517.738 768.77 518.23C769.777 518.723 770.281 519.531 770.281 520.656V522.414C770.281 523.656 769.777 524.559 768.77 525.121C767.738 525.707 766.391 526 764.727 526ZM707.281 486.344C707.867 486.859 708.594 487.363 709.461 487.855C710.328 488.348 711.395 488.781 712.66 489.156C713.926 489.555 715.438 489.871 717.195 490.105C718.93 490.363 720.969 490.492 723.312 490.492C725.398 490.492 727.379 490.445 729.254 490.352C731.105 490.281 732.734 490.047 734.141 489.648C735.547 489.273 736.66 488.664 737.48 487.82C738.301 486.977 738.711 485.805 738.711 484.305V479.805C736.648 479.477 734.375 479.207 731.891 478.996C729.406 478.785 726.641 478.68 723.594 478.68C721.156 478.68 718.566 478.762 715.824 478.926C713.059 479.113 710.211 479.477 707.281 480.016V486.344ZM723.102 512.078C721.93 512.078 720.512 512.02 718.848 511.902C717.184 511.785 715.449 511.574 713.645 511.27C711.84 510.988 710.059 510.59 708.301 510.074C706.52 509.582 704.926 508.926 703.52 508.105C702.09 507.309 700.941 506.348 700.074 505.223C699.207 504.098 698.773 502.773 698.773 501.25V474.039C700.742 473.641 702.969 473.301 705.453 473.02C707.586 472.762 710.129 472.527 713.082 472.316C716.035 472.105 719.328 472 722.961 472C726.57 472 730.414 472.152 734.492 472.457C738.547 472.762 742.789 473.289 747.219 474.039V486.695C747.219 488.055 746.902 489.238 746.27 490.246C745.613 491.277 744.723 492.156 743.598 492.883C742.473 493.609 741.148 494.207 739.625 494.676C738.102 495.145 736.461 495.52 734.703 495.801C732.945 496.082 731.117 496.27 729.219 496.363C727.32 496.48 725.422 496.539 723.523 496.539C720.641 496.539 718.191 496.352 716.176 495.977C714.137 495.625 712.449 495.238 711.113 494.816C709.566 494.301 708.289 493.727 707.281 493.094V498.789C707.281 499.75 707.516 500.57 707.984 501.25C708.453 501.953 709.086 502.539 709.883 503.008C710.68 503.5 711.594 503.887 712.625 504.168C713.656 504.473 714.734 504.707 715.859 504.871C716.984 505.035 718.133 505.141 719.305 505.188C720.453 505.234 721.531 505.258 722.539 505.258C723.594 505.258 724.719 505.223 725.914 505.152C727.109 505.105 728.305 505 729.5 504.836C730.672 504.672 731.809 504.438 732.91 504.133C733.988 503.852 734.949 503.465 735.793 502.973C736.637 502.48 737.316 501.883 737.832 501.18C738.324 500.5 738.57 499.68 738.57 498.719L747.289 500.969C747.289 502.539 746.902 503.898 746.129 505.047C745.355 506.219 744.336 507.215 743.07 508.035C741.781 508.855 740.305 509.523 738.641 510.039C736.977 510.578 735.254 510.988 733.473 511.27C731.668 511.574 729.875 511.785 728.094 511.902C726.312 512.02 724.648 512.078 723.102 512.078Z" fill="white"/>
</g>
<g filter="url(#filter1_d)">
<path d="M540.805 723.898L559.156 695.773C561.148 695.891 563.035 696.043 564.816 696.23C566.598 696.395 568.156 696.57 569.492 696.758C571.062 696.969 572.516 697.18 573.852 697.391V705.477L567.312 704V740.281L573.852 738.805V747.523C571.367 748.016 568.918 748.379 566.504 748.613C564.09 748.848 561.641 749.023 559.156 749.141V710.539L540.805 739.016L522.172 710.469V749.141C520.18 749.023 518.293 748.883 516.512 748.719C514.73 748.555 513.172 748.379 511.836 748.191C510.266 747.98 508.812 747.758 507.477 747.523V738.805L514.016 740.281V703.93L507.477 705.406V697.32C508.812 697.109 510.266 696.898 511.836 696.688C513.172 696.5 514.73 696.324 516.512 696.16C518.293 695.973 520.18 695.82 522.172 695.703L540.805 723.898ZM625.461 734.656C624.875 734.141 624.148 733.637 623.281 733.145C622.414 732.652 621.348 732.219 620.082 731.844C618.816 731.445 617.305 731.129 615.547 730.895C613.812 730.637 611.773 730.508 609.43 730.508C607.344 730.508 605.363 730.555 603.488 730.648C601.637 730.719 600.008 730.953 598.602 731.352C597.195 731.727 596.082 732.336 595.262 733.18C594.441 734.023 594.031 735.195 594.031 736.695V741.195C596.094 741.523 598.367 741.793 600.852 742.004C603.336 742.215 606.102 742.32 609.148 742.32C611.586 742.32 614.176 742.238 616.918 742.074C619.684 741.887 622.531 741.523 625.461 740.984V734.656ZM609.641 708.922C610.812 708.922 612.23 708.98 613.895 709.098C615.559 709.215 617.293 709.426 619.098 709.73C620.902 710.012 622.684 710.41 624.441 710.926C626.223 711.418 627.816 712.074 629.223 712.895C630.652 713.691 631.801 714.652 632.668 715.777C633.535 716.902 633.969 718.227 633.969 719.75V746.961C632 747.359 629.773 747.699 627.289 747.98C625.156 748.238 622.613 748.473 619.66 748.684C616.707 748.895 613.414 749 609.781 749C606.172 749 602.328 748.848 598.25 748.543C594.195 748.238 589.953 747.711 585.523 746.961V734.305C585.523 732.945 585.84 731.762 586.473 730.754C587.129 729.723 588.02 728.844 589.145 728.117C590.27 727.391 591.594 726.793 593.117 726.324C594.641 725.855 596.281 725.48 598.039 725.199C599.797 724.918 601.625 724.73 603.523 724.637C605.422 724.52 607.32 724.461 609.219 724.461C612.102 724.461 614.551 724.648 616.566 725.023C618.605 725.375 620.293 725.762 621.629 726.184C623.176 726.699 624.453 727.273 625.461 727.906V722.211C625.461 721.25 625.227 720.43 624.758 719.75C624.289 719.047 623.656 718.461 622.859 717.992C622.062 717.5 621.148 717.113 620.117 716.832C619.086 716.527 618.008 716.293 616.883 716.129C615.758 715.965 614.609 715.859 613.438 715.812C612.289 715.766 611.211 715.742 610.203 715.742C609.148 715.742 608.023 715.777 606.828 715.848C605.633 715.895 604.438 716 603.242 716.164C602.07 716.328 600.934 716.562 599.832 716.867C598.754 717.148 597.793 717.535 596.949 718.027C596.105 718.52 595.426 719.117 594.91 719.82C594.418 720.5 594.172 721.32 594.172 722.281L585.453 720.031C585.453 718.461 585.84 717.102 586.613 715.953C587.387 714.781 588.406 713.785 589.672 712.965C590.961 712.145 592.438 711.477 594.102 710.961C595.766 710.422 597.488 710.012 599.27 709.73C601.074 709.426 602.867 709.215 604.648 709.098C606.43 708.98 608.094 708.922 609.641 708.922ZM664.695 701.68C663.734 701.68 662.855 701.773 662.059 701.961C661.262 702.148 660.559 702.441 659.949 702.84C659.363 703.215 658.906 703.695 658.578 704.281C658.25 704.844 658.086 705.5 658.086 706.25V708.43H667.156V714.336H658.086V749H648.945V714.336H643.25V708.43H648.945V707.234C648.945 705.57 649.297 704.023 650 702.594C650.703 701.164 651.723 699.934 653.059 698.902C654.418 697.848 656.07 697.027 658.016 696.441C659.961 695.855 662.188 695.562 664.695 695.562V701.68ZM686.703 749H677.773V708.922H686.703V749ZM682.273 695C684.008 695 685.379 695.293 686.387 695.879C687.395 696.441 687.898 697.344 687.898 698.586V700.344C687.898 701.469 687.395 702.277 686.387 702.77C685.379 703.262 684.008 703.508 682.273 703.508C680.609 703.508 679.262 703.262 678.23 702.77C677.223 702.277 676.719 701.469 676.719 700.344V698.586C676.719 697.344 677.223 696.441 678.23 695.879C679.262 695.293 680.609 695 682.273 695ZM739.719 734.656C739.133 734.141 738.406 733.637 737.539 733.145C736.672 732.652 735.605 732.219 734.34 731.844C733.074 731.445 731.562 731.129 729.805 730.895C728.07 730.637 726.031 730.508 723.688 730.508C721.602 730.508 719.621 730.555 717.746 730.648C715.895 730.719 714.266 730.953 712.859 731.352C711.453 731.727 710.34 732.336 709.52 733.18C708.699 734.023 708.289 735.195 708.289 736.695V741.195C710.352 741.523 712.625 741.793 715.109 742.004C717.594 742.215 720.359 742.32 723.406 742.32C725.844 742.32 728.434 742.238 731.176 742.074C733.941 741.887 736.789 741.523 739.719 740.984V734.656ZM723.898 708.922C725.07 708.922 726.488 708.98 728.152 709.098C729.816 709.215 731.551 709.426 733.355 709.73C735.16 710.012 736.941 710.41 738.699 710.926C740.48 711.418 742.074 712.074 743.48 712.895C744.91 713.691 746.059 714.652 746.926 715.777C747.793 716.902 748.227 718.227 748.227 719.75V746.961C746.258 747.359 744.031 747.699 741.547 747.98C739.414 748.238 736.871 748.473 733.918 748.684C730.965 748.895 727.672 749 724.039 749C720.43 749 716.586 748.848 712.508 748.543C708.453 748.238 704.211 747.711 699.781 746.961V734.305C699.781 732.945 700.098 731.762 700.73 730.754C701.387 729.723 702.277 728.844 703.402 728.117C704.527 727.391 705.852 726.793 707.375 726.324C708.898 725.855 710.539 725.48 712.297 725.199C714.055 724.918 715.883 724.73 717.781 724.637C719.68 724.52 721.578 724.461 723.477 724.461C726.359 724.461 728.809 724.648 730.824 725.023C732.863 725.375 734.551 725.762 735.887 726.184C737.434 726.699 738.711 727.273 739.719 727.906V722.211C739.719 721.25 739.484 720.43 739.016 719.75C738.547 719.047 737.914 718.461 737.117 717.992C736.32 717.5 735.406 717.113 734.375 716.832C733.344 716.527 732.266 716.293 731.141 716.129C730.016 715.965 728.867 715.859 727.695 715.812C726.547 715.766 725.469 715.742 724.461 715.742C723.406 715.742 722.281 715.777 721.086 715.848C719.891 715.895 718.695 716 717.5 716.164C716.328 716.328 715.191 716.562 714.09 716.867C713.012 717.148 712.051 717.535 711.207 718.027C710.363 718.52 709.684 719.117 709.168 719.82C708.676 720.5 708.43 721.32 708.43 722.281L699.711 720.031C699.711 718.461 700.098 717.102 700.871 715.953C701.645 714.781 702.664 713.785 703.93 712.965C705.219 712.145 706.695 711.477 708.359 710.961C710.023 710.422 711.746 710.012 713.527 709.73C715.332 709.426 717.125 709.215 718.906 709.098C720.688 708.98 722.352 708.922 723.898 708.922Z" fill="white"/>
</g>
<path d="M895.04 712.631L888.383 729.774L882.357 715.489L888.072 708.775L895.04 712.631Z" fill="#E6E9ED"/>
<path d="M888.07 708.772L882.355 715.485H876.641L870.927 708.772L879.498 704.057L888.07 708.772Z" fill="#E92121"/>
<path d="M870.929 708.775L876.644 715.489L870.618 729.774L863.961 712.631L870.929 708.775Z" fill="#E6E9ED"/>
<path d="M882.356 715.488L888.381 729.774L879.499 752.631L870.616 729.774L876.642 715.488H882.356Z" fill="#E92121"/>
<path d="M899.5 701.2L895.04 712.629L888.071 708.773L879.5 704.058L870.929 708.773L863.96 712.629L859.5 701.2V693.403C865.472 696.546 872.269 698.343 879.5 698.343C886.727 698.343 893.529 696.544 899.5 693.403V701.2Z" fill="#F5F7FA"/>
<path d="M938.5 631.307C938.5 634.417 931.289 637.203 919.727 639.138C909.189 640.934 895.053 642.034 879.5 642.034C863.943 642.034 849.813 640.934 839.273 639.138C827.711 637.203 820.5 634.417 820.5 631.307C820.5 628.032 828.492 625.109 841.069 623.151L839.273 631.307H919.727L917.931 623.151C930.508 625.109 938.5 628.032 938.5 631.307Z" fill="#202223"/>
<path d="M917.903 623.149H917.93L919.726 631.304H839.271L841.068 623.149L841.661 620.577H917.336L917.903 623.149Z" fill="#E92121"/>
<path d="M908.998 583L917.335 620.576H841.66L849.998 583C868.77 583 868.77 591.076 879.498 591.076C890.225 591.076 890.199 583 908.998 583V583Z" fill="#202223"/>
<path d="M917.932 623.149H917.906L917.339 620.577H909.288L909.854 623.149H909.881L911.678 631.304H919.728L917.932 623.149Z" fill="#A83327"/>
<path d="M909.003 583C905.876 583 903.309 583.238 901.09 583.612L909.292 620.576H917.343L909.003 583Z" fill="#434A54"/>
<path d="M917.732 742.944C916.01 742.944 914.616 741.552 914.616 739.828V733.53C914.616 731.808 916.01 730.414 917.732 730.414C919.456 730.414 920.849 731.808 920.849 733.53V739.828C920.849 741.549 919.456 742.944 917.732 742.944V742.944Z" fill="#A0D468"/>
<path d="M923.965 721V730.339C923.965 733.792 921.185 736.572 917.732 736.572C914.28 736.572 911.5 733.792 911.5 730.339V721H923.965Z" fill="#E92121"/>
<g clip-path="url(#clip0)">
<path fill-rule="evenodd" clip-rule="evenodd" d="M550.816 524.056C550.075 524.402 549.345 524.773 548.627 525.168C543.446 527.911 539.024 531.612 535.473 536.066C533.159 538.969 531.216 542.19 529.674 545.676L527.932 544.628C525.986 543.458 525.206 541.029 526.106 538.945L531.804 525.74L528.678 505.372C528.476 504.055 528.685 502.709 529.275 501.515L547.347 465H556.945L550.947 496.087C550.947 496.087 547.563 513.17 550.816 524.056ZM601.77 546.01C597.39 536.177 590.088 528.333 581.17 524.102C584.446 513.218 581.053 496.087 581.053 496.087L575.054 465H584.652L602.724 501.515C603.315 502.709 603.523 504.055 603.321 505.372L600.196 525.74L605.894 538.945C606.793 541.029 606.013 543.458 604.067 544.628L601.77 546.01Z" fill="#985E33"/>
<path d="M585.024 526.161C593.409 517.776 581.052 496.088 581.052 496.088L566 511.795L571.188 520.973C571.188 520.973 575.175 521.748 577.792 522.702C580.629 523.737 585.024 526.161 585.024 526.161Z" fill="#F9F6F9"/>
<path d="M548.233 525.375C539.848 516.989 550.947 496.088 550.947 496.088L566 511.795L560.654 521.13C560.654 521.13 556.5 521.723 554.051 522.702C551.692 523.646 548.233 525.375 548.233 525.375Z" fill="#F9F6F9"/>
<path d="M566 586.064H515.942C513.925 586.064 513.031 588.374 514.603 589.524L528.222 599.485L535.762 623.645C536.198 625.038 537.596 626 539.189 626H566H592.811C594.404 626 595.803 625.038 596.238 623.645L603.778 599.485L617.397 589.524C618.969 588.374 618.076 586.064 616.058 586.064H566Z" fill="#C17D4F"/>
<path d="M528.191 599.485L535.715 623.645C536.149 625.038 537.545 626 539.134 626H543.988L535.731 599.485L517.421 586.064H515.937C513.924 586.064 513.032 588.374 514.601 589.524L528.191 599.485Z" fill="#B16E3D"/>
<path d="M531.735 610.592H600.265L603.734 599.586H528.266L531.735 610.592Z" fill="#595959"/>
<path d="M531.732 610.592H539.271L535.805 599.586H528.266L531.732 610.592Z" fill="#454545"/>
</g>
<defs>
<filter id="filter0_d" x="698.773" y="471.859" width="245.75" height="60.1406" filterUnits="userSpaceOnUse" color-interpolation-filters="sRGB">
<feFlood flood-opacity="0" result="BackgroundImageFix"/>
<feColorMatrix in="SourceAlpha" type="matrix" values="0 0 0 0 0 0 0 0 0 0 0 0 0 0 0 0 0 0 127 0"/>
<feOffset dx="5" dy="6"/>
<feColorMatrix type="matrix" values="0 0 0 0 0 0 0 0 0 0 0 0 0 0 0 0 0 0 1 0"/>
<feBlend mode="normal" in2="BackgroundImageFix" result="effect1_dropShadow"/>
<feBlend mode="normal" in="SourceGraphic" in2="effect1_dropShadow" result="shape"/>
</filter>
<filter id="filter1_d" x="502.477" y="689" width="245.75" height="60.1406" filterUnits="userSpaceOnUse" color-interpolation-filters="sRGB">
<feFlood flood-opacity="0" result="BackgroundImageFix"/>
<feColorMatrix in="SourceAlpha" type="matrix" values="0 0 0 0 0 0 0 0 0 0 0 0 0 0 0 0 0 0 127 0"/>
<feOffset dx="-5" dy="-6"/>
<feColorMatrix type="matrix" values="0 0 0 0 0 0 0 0 0 0 0 0 0 0 0 0 0 0 1 0"/>
<feBlend mode="normal" in2="BackgroundImageFix" result="effect1_dropShadow"/>
<feBlend mode="normal" in="SourceGraphic" in2="effect1_dropShadow" result="shape"/>
</filter>
<clipPath id="clip0">
<rect width="161" height="161" fill="white" transform="translate(646.5 626) rotate(-180)"/>
</clipPath>
</defs>
</svg>
